<svg width="88" height="88" viewBox="0 0 88 88" fill="none" xmlns="http://www.w3.org/2000/svg">
<circle cx="43.7984" cy="43.7984" r="43.2984" stroke="#6001B5"/>
<path d="M40.4919 41.0244C40.7823 41.0244 41.0169 40.7892 41.0169 40.4994V39.4064C41.0169 39.1166 40.7823 38.8814 40.4919 38.8814C40.2016 38.8814 39.9669 39.1166 39.9669 39.4064V40.4994C39.9669 40.7898 40.2021 41.0244 40.4919 41.0244Z" fill="white"/>
<path d="M43.1967 41.0244C43.4871 41.0244 43.7217 40.7892 43.7217 40.4994V39.4064C43.7217 39.1166 43.4871 38.8814 43.1967 38.8814C42.9064 38.8814 42.6717 39.1166 42.6717 39.4064V40.4994C42.6717 40.7898 42.9064 41.0244 43.1967 41.0244Z" fill="white"/>
<path d="M45.9005 41.0244C46.1908 41.0244 46.4255 40.7892 46.4255 40.4994V39.4064C46.4255 39.1166 46.1908 38.8814 45.9005 38.8814C45.6102 38.8814 45.3755 39.1166 45.3755 39.4064V40.4994C45.3755 40.7898 45.6102 41.0244 45.9005 41.0244Z" fill="white"/>
<path d="M40.4919 45.4948C40.7823 45.4948 41.0169 45.2596 41.0169 44.9698V43.8767C41.0169 43.5869 40.7823 43.3517 40.4919 43.3517C40.2016 43.3517 39.9669 43.5869 39.9669 43.8767V44.9698C39.9669 45.2601 40.2021 45.4948 40.4919 45.4948Z" fill="white"/>
<path d="M43.1967 45.4948C43.4871 45.4948 43.7217 45.2596 43.7217 44.9698V43.8767C43.7217 43.5869 43.4871 43.3517 43.1967 43.3517C42.9064 43.3517 42.6717 43.5869 42.6717 43.8767V44.9698C42.6717 45.2601 42.9064 45.4948 43.1967 45.4948Z" fill="white"/>
<path d="M45.9005 45.4948C46.1908 45.4948 46.4255 45.2596 46.4255 44.9698V43.8767C46.4255 43.5869 46.1908 43.3517 45.9005 43.3517C45.6102 43.3517 45.3755 43.5869 45.3755 43.8767V44.9698C45.3755 45.2601 45.6102 45.4948 45.9005 45.4948Z" fill="white"/>
<path d="M40.4919 49.9657C40.7823 49.9657 41.0169 49.7305 41.0169 49.4407V48.3477C41.0169 48.0579 40.7823 47.8227 40.4919 47.8227C40.2016 47.8227 39.9669 48.0579 39.9669 48.3477V49.4407C39.9669 49.7305 40.2021 49.9657 40.4919 49.9657Z" fill="white"/>
<path d="M43.1967 49.9657C43.4871 49.9657 43.7217 49.7305 43.7217 49.4407V48.3477C43.7217 48.0579 43.4871 47.8227 43.1967 47.8227C42.9064 47.8227 42.6717 48.0579 42.6717 48.3477V49.4407C42.6717 49.7305 42.9064 49.9657 43.1967 49.9657Z" fill="white"/>
<path d="M45.9005 49.9657C46.1908 49.9657 46.4255 49.7305 46.4255 49.4407V48.3477C46.4255 48.0579 46.1908 47.8227 45.9005 47.8227C45.6102 47.8227 45.3755 48.0579 45.3755 48.3477V49.4407C45.3755 49.7305 45.6102 49.9657 45.9005 49.9657Z" fill="white"/>
<path d="M40.4919 54.436C40.7823 54.436 41.0169 54.2008 41.0169 53.911V52.818C41.0169 52.5282 40.7823 52.293 40.4919 52.293C40.2016 52.293 39.9669 52.5282 39.9669 52.818V53.911C39.9669 54.2008 40.2021 54.436 40.4919 54.436Z" fill="white"/>
<path d="M43.1967 54.436C43.4871 54.436 43.7217 54.2008 43.7217 53.911V52.818C43.7217 52.5282 43.4871 52.293 43.1967 52.293C42.9064 52.293 42.6717 52.5282 42.6717 52.818V53.911C42.6717 54.2008 42.9064 54.436 43.1967 54.436Z" fill="white"/>
<path d="M45.9005 54.436C46.1908 54.436 46.4255 54.2008 46.4255 53.911V52.818C46.4255 52.5282 46.1908 52.293 45.9005 52.293C45.6102 52.293 45.3755 52.5282 45.3755 52.818V53.911C45.3755 54.2008 45.6102 54.436 45.9005 54.436Z" fill="white"/>
<path d="M40.4919 58.907C40.7823 58.907 41.0169 58.6718 41.0169 58.382V57.2889C41.0169 56.9991 40.7823 56.7639 40.4919 56.7639C40.2016 56.7639 39.9669 56.9991 39.9669 57.2889V58.382C39.9669 58.6718 40.2021 58.907 40.4919 58.907Z" fill="white"/>
<path d="M43.1967 58.907C43.4871 58.907 43.7217 58.6718 43.7217 58.382V57.2889C43.7217 56.9991 43.4871 56.7639 43.1967 56.7639C42.9064 56.7639 42.6717 56.9991 42.6717 57.2889V58.382C42.6717 58.6718 42.9064 58.907 43.1967 58.907Z" fill="white"/>
<path d="M45.9005 58.907C46.1908 58.907 46.4255 58.6718 46.4255 58.382V57.2889C46.4255 56.9991 46.1908 56.7639 45.9005 56.7639C45.6102 56.7639 45.3755 56.9991 45.3755 57.2889V58.382C45.3755 58.6718 45.6102 58.907 45.9005 58.907Z" fill="white"/>
<path d="M52.4446 27.3618C52.7349 27.3618 52.9696 27.1266 52.9696 26.8368V25.6886C52.9696 25.3988 52.7349 25.1636 52.4446 25.1636C52.1543 25.1636 51.9196 25.3988 51.9196 25.6886V26.8368C51.9196 27.1266 52.1543 27.3618 52.4446 27.3618Z" fill="white"/>
<path d="M55.1484 27.3618C55.4387 27.3618 55.6734 27.1266 55.6734 26.8368V25.6886C55.6734 25.3988 55.4387 25.1636 55.1484 25.1636C54.858 25.1636 54.6234 25.3988 54.6234 25.6886V26.8368C54.6234 27.1266 54.8586 27.3618 55.1484 27.3618Z" fill="white"/>
<path d="M52.4446 32.0559C52.7349 32.0559 52.9696 31.8207 52.9696 31.5309V30.3832C52.9696 30.0934 52.7349 29.8582 52.4446 29.8582C52.1543 29.8582 51.9196 30.0934 51.9196 30.3832V31.5309C51.9196 31.8207 52.1543 32.0559 52.4446 32.0559Z" fill="white"/>
<path d="M49.6411 27.3618C49.9314 27.3618 50.1661 27.1266 50.1661 26.8368V25.6886C50.1661 25.3988 49.9314 25.1636 49.6411 25.1636C49.3508 25.1636 49.1161 25.3988 49.1161 25.6886V26.8368C49.1161 27.1266 49.3508 27.3618 49.6411 27.3618Z" fill="white"/>
<path d="M50.1661 31.5309V30.3832C50.1661 30.0934 49.9314 29.8582 49.6411 29.8582C49.3508 29.8582 49.1161 30.0934 49.1161 30.3832V31.5309C49.1161 31.8207 49.3508 32.0559 49.6411 32.0559C49.9314 32.0559 50.1661 31.8207 50.1661 31.5309Z" fill="white"/>
<path d="M55.1484 32.0559C55.4387 32.0559 55.6734 31.8207 55.6734 31.5309V30.3832C55.6734 30.0934 55.4387 29.8582 55.1484 29.8582C54.858 29.8582 54.6234 30.0934 54.6234 30.3832V31.5309C54.6234 31.8207 54.8586 32.0559 55.1484 32.0559Z" fill="white"/>
<path d="M52.4446 36.7498C52.7349 36.7498 52.9696 36.5146 52.9696 36.2248V35.0772C52.9696 34.7874 52.7349 34.5522 52.4446 34.5522C52.1543 34.5522 51.9196 34.7874 51.9196 35.0772V36.2248C51.9196 36.5146 52.1543 36.7498 52.4446 36.7498Z" fill="white"/>
<path d="M55.1484 36.7498C55.4387 36.7498 55.6734 36.5146 55.6734 36.2248V35.0772C55.6734 34.7874 55.4387 34.5522 55.1484 34.5522C54.858 34.5522 54.6234 34.7874 54.6234 35.0772V36.2248C54.6234 36.5146 54.8586 36.7498 55.1484 36.7498Z" fill="white"/>
<path d="M52.4446 41.4445C52.7349 41.4445 52.9696 41.2093 52.9696 40.9195V39.7713C52.9696 39.4815 52.7349 39.2463 52.4446 39.2463C52.1543 39.2463 51.9196 39.4815 51.9196 39.7713V40.9195C51.9196 41.2093 52.1543 41.4445 52.4446 41.4445Z" fill="white"/>
<path d="M55.1484 41.4445C55.4387 41.4445 55.6734 41.2093 55.6734 40.9195V39.7713C55.6734 39.4815 55.4387 39.2463 55.1484 39.2463C54.858 39.2463 54.6234 39.4815 54.6234 39.7713V40.9195C54.6234 41.2093 54.8586 41.4445 55.1484 41.4445Z" fill="white"/>
<path d="M52.4446 46.1384C52.7349 46.1384 52.9696 45.9032 52.9696 45.6134V44.4658C52.9696 44.176 52.7349 43.9408 52.4446 43.9408C52.1543 43.9408 51.9196 44.176 51.9196 44.4658V45.6134C51.9196 45.9032 52.1543 46.1384 52.4446 46.1384Z" fill="white"/>
<path d="M55.1484 46.1384C55.4387 46.1384 55.6734 45.9032 55.6734 45.6134V44.4658C55.6734 44.176 55.4387 43.9408 55.1484 43.9408C54.858 43.9408 54.6234 44.176 54.6234 44.4658V45.6134C54.6234 45.9032 54.8586 46.1384 55.1484 46.1384Z" fill="white"/>
<path d="M64.4755 62.95H62.1036V48.8942C62.1036 48.6044 61.8689 48.3692 61.5786 48.3692H58.8906V22.525C58.8906 22.2352 58.6559 22 58.3656 22H46.4239C46.1336 22 45.8989 22.2352 45.8989 22.525V34.2152L41.124 31.7293V25.098C41.124 24.8082 40.8894 24.573 40.599 24.573H29.3184C29.028 24.573 28.7934 24.8082 28.7934 25.098V43.8353H26.2907C26.0004 43.8353 25.7657 44.0705 25.7657 44.3603V62.95H23.525C23.2347 62.95 23 63.1852 23 63.475C23 63.7648 23.2347 64 23.525 64H64.475C64.7653 64 65 63.7648 65 63.475C65 63.1852 64.7658 62.95 64.4755 62.95ZM36.913 62.95H26.8162V60.031H36.913V62.95ZM36.913 58.981H26.8162V56.1103H36.913V58.981ZM36.913 55.0603H26.8162V52.1896H36.913V55.0603ZM36.913 51.1396H26.8162V48.4547H36.913V51.1396ZM36.913 47.4047H26.8162V44.8853H36.913V47.4047ZM37.1655 29.9532C37.0086 30.0482 36.913 30.2183 36.913 30.4021V43.8353H29.8434V25.623H40.074V31.1828L37.68 29.9364C37.5173 29.8519 37.323 29.8582 37.1655 29.9532ZM48.8541 62.95H37.963V31.2673L48.8541 36.9378V62.95ZM49.6217 36.1529L46.9489 34.7617V23.05H57.8406V48.3692H49.9041V36.6192C49.9041 36.4233 49.7955 36.2438 49.6217 36.1529ZM57.8742 62.95H52.9197V57.6932C52.9197 56.293 54.0306 55.1537 55.3967 55.1537C56.7627 55.1537 57.8742 56.293 57.8742 57.6932V62.95ZM61.0536 62.95H58.9236V57.6932C58.9236 55.7139 57.3413 54.1037 55.3962 54.1037C53.4516 54.1037 51.8692 55.7139 51.8692 57.6932V62.95H49.9041V49.4192H61.0536V62.95Z" fill="white"/>
</svg>
