<svg width="88" height="88" viewBox="0 0 88 88" fill="none" xmlns="http://www.w3.org/2000/svg">
<circle cx="43.7984" cy="43.7984" r="43.2984" stroke="#6001B5"/>
<g clip-path="url(#clip0)">
<path d="M64.753 48.8155C64.9466 48.0764 65.0979 47.3269 65.2062 46.5706C65.096 47.3283 64.9439 48.0793 64.7506 48.8202L64.753 48.8155Z" fill="#94CD85"/>
<path d="M63.722 35.1953C63.0396 33.6175 62.164 32.1306 61.1152 30.7687C62.1617 32.1301 63.0365 33.6152 63.7197 35.1906L63.722 35.1953Z" fill="#94CD85"/>
<path d="M64.9221 38.908C64.9386 38.9784 64.9573 39.0489 64.9738 39.1217C64.9573 39.0465 64.9386 38.9761 64.9221 38.908Z" fill="#65D0D9"/>
<path d="M64.0297 35.9608L64.079 36.0806L64.0297 35.9608Z" fill="#65D0D9"/>
<path d="M64.7272 48.9071C64.7272 48.8766 64.746 48.8461 64.753 48.8156C64.7436 48.8508 64.7366 48.879 64.7272 48.9071Z" fill="#65D0D9"/>
<path d="M64.6685 37.8888C64.6872 37.9545 64.7084 38.0203 64.7248 38.0861C64.7084 38.0203 64.6872 37.9545 64.6685 37.8888Z" fill="#65D0D9"/>
<path d="M65.2297 46.4225C65.2485 46.2863 65.265 46.1501 65.2814 46.0116C65.265 46.1478 65.2485 46.284 65.2297 46.4178V46.4225Z" fill="#65D0D9"/>
<path d="M65.4363 43.4025C65.4363 43.2875 65.4363 43.1677 65.4363 43.0597C65.4363 43.1888 65.4363 43.3157 65.4363 43.4448C65.434 43.4307 65.4363 43.4166 65.4363 43.4025Z" fill="#65D0D9"/>
<path d="M65.3777 42.0265C65.3777 42.1275 65.3965 42.2284 65.4035 42.3318C65.3965 42.2284 65.3847 42.1275 65.3777 42.0265Z" fill="#65D0D9"/>
<path d="M64.3679 36.9048L64.4266 37.0739L64.3679 36.9048Z" fill="#65D0D9"/>
<path d="M65.4271 43.9403C65.4271 44.0272 65.4271 44.1141 65.4271 44.1986C65.4247 44.1141 65.4247 44.0272 65.4271 43.9403Z" fill="#65D0D9"/>
<path d="M62.9424 53.5285C62.9511 53.522 62.9577 53.513 62.9612 53.5027C63.3628 52.662 63.5718 52.2158 63.7667 51.7133C64.1508 50.8026 64.4717 49.8665 64.7272 48.9117C64.464 49.8978 64.1288 50.8632 63.7244 51.8002C63.5342 52.2933 63.3275 52.7254 62.9424 53.5285Z" fill="#65D0D9"/>
<path d="M65.272 40.9816C65.2837 41.0685 65.2978 41.1553 65.3072 41.2422C65.3048 41.1553 65.2908 41.0685 65.272 40.9816Z" fill="#65D0D9"/>
<path d="M65.3496 45.34C65.3378 45.4668 65.3284 45.5959 65.3143 45.7227C65.3284 45.5959 65.3378 45.4668 65.3496 45.34Z" fill="#65D0D9"/>
<path d="M65.1288 39.9388C65.1405 40.0163 65.157 40.0915 65.1711 40.1737C65.157 40.0821 65.1405 40.0163 65.1288 39.9388Z" fill="#65D0D9"/>
<path d="M65.3989 44.6543C65.3989 44.7576 65.3989 44.8609 65.3824 44.9643C65.3895 44.8609 65.3942 44.7576 65.3989 44.6543Z" fill="#65D0D9"/>
<path d="M54.589 43.0386C54.589 43.0386 54.589 43.0174 54.589 43.0081C54.589 43.1231 54.589 43.2288 54.589 43.3274C54.5937 43.2358 54.5937 43.1349 54.589 43.0386Z" fill="#65D0D9"/>
<path d="M55.1244 41.585C54.2085 40.8077 54.1616 41.0284 54.2884 41.585C54.1757 41.0637 54.2438 40.8805 55.1338 41.6367C55.6019 42.1083 56.014 42.6323 56.3621 43.1983V43.1349C56.0113 42.5718 55.596 42.0516 55.1244 41.585Z" fill="#65D0D9"/>
<path d="M46.6794 30.5737C47.0481 30.6043 47.4216 30.6606 47.7926 30.717C47.4239 30.6583 47.0481 30.6019 46.6794 30.5737Z" fill="#65D0D9"/>
<path d="M44.7302 58.2439C43.3211 56.3652 44.3357 53.0917 43.8448 50.9242C43.61 49.8839 43.1896 49.2663 42.6143 48.8859C43.1755 49.271 43.5818 49.8886 43.8096 50.9148C44.2793 53.0846 43.2554 56.3512 44.6574 58.2392C45.16 58.9108 45.6625 59.1785 46.1534 59.1621C45.686 59.1527 45.2069 58.8803 44.7302 58.2439Z" fill="#65D0D9"/>
<path d="M42.1539 34.8688L42.1938 34.8454C42.0059 33.906 41.1065 33.2203 40.3151 33.6313C41.0947 33.272 41.9684 33.9553 42.1539 34.8688Z" fill="#65D0D9"/>
<path d="M39.8361 39.7416C40.0219 39.6424 40.218 39.5637 40.4208 39.5068V39.4904C40.2266 39.5423 40.0385 39.6148 39.8595 39.7064C37.9432 40.7162 36.1772 43.9334 36.7338 46.0985C36.1936 43.9357 37.9362 40.7538 39.8361 39.7416Z" fill="#65D0D9"/>
<path d="M52.2945 44.6988C52.0361 44.6988 51.7285 44.3912 51.651 44.5509V44.5673C51.7402 44.4452 52.0314 44.7387 52.2804 44.7317C53.6589 44.673 54.5725 44.9665 54.5866 43.3368C54.5725 44.9149 53.6589 44.6354 52.2945 44.6988Z" fill="#65D0D9"/>
<path d="M40.1648 37.0293C39.9051 37.25 39.6581 37.4852 39.425 37.7338C39.6593 37.4863 39.9062 37.2512 40.1648 37.0293Z" fill="#65D0D9"/>
<path d="M39.3358 37.8371C39.3407 37.8311 39.3462 37.8256 39.3523 37.8207C39.3462 37.8256 39.3407 37.8311 39.3358 37.8371Z" fill="#65D0D9"/>
<path d="M36.8088 46.3779C36.7948 46.3357 36.783 46.291 36.7689 46.2488C36.783 46.291 36.7924 46.3357 36.8088 46.3779Z" fill="#65D0D9"/>
<path d="M65.1899 42.0383C65.1734 41.78 65.1546 41.5193 65.1265 41.2633L65.4999 41.2211C65.528 41.4841 65.5468 41.7494 65.5656 42.0125L65.1899 42.0383Z" fill="white"/>
<path d="M64.4877 37.9381C64.4125 37.6681 64.335 37.398 64.2528 37.1326L64.6098 37.0176C64.6967 37.2876 64.7765 37.56 64.8446 37.8301L64.4877 37.9381Z" fill="white"/>
<path d="M64.7389 38.9455C64.6778 38.6731 64.6144 38.4031 64.5439 38.1354L64.9056 38.0367C64.9808 38.3115 65.0442 38.5862 65.1052 38.8633L64.7389 38.9455Z" fill="white"/>
<path d="M64.9057 48.9728L64.699 48.9094L64.5393 48.907H64.6896L64.5464 48.8648L64.551 48.8436L64.7272 48.907H64.9151L64.9174 48.9399L64.9057 48.9728Z" fill="white"/>
<path d="M64.9432 39.9717C64.8962 39.6993 64.8469 39.4269 64.7905 39.1592L65.1569 39.0793C65.2156 39.3518 65.2649 39.6289 65.3119 39.906L64.9432 39.9717Z" fill="white"/>
<path d="M65.0935 41.0049C65.0606 40.7349 65.0277 40.4672 64.9855 40.1995L65.3565 40.1407C65.3988 40.4108 65.434 40.6856 65.4669 40.958L65.0935 41.0049Z" fill="white"/>
<path d="M64.1894 36.9635C64.0978 36.6911 64.0063 36.4211 63.9053 36.1557L64.2575 36.0219C64.3609 36.2943 64.4548 36.5737 64.5487 36.8532L64.1894 36.9635Z" fill="white"/>
<path d="M60.9674 30.8838C60.0475 29.6844 59.0002 28.5884 57.8439 27.6149C57.6455 27.5793 57.4443 27.5612 57.2427 27.5609C55.8618 27.5609 54.5749 28.4321 53.3279 29.2728C52.7854 29.6415 52.2241 30.0196 51.6581 30.3272L51.5219 30.4024L51.2448 30.0619L51.4397 29.9538C51.9799 29.6556 52.5224 29.2846 53.0461 28.9276C54.3565 28.0329 55.7139 27.1194 57.2357 27.1312C53.5949 24.2995 49.1148 22.7611 44.5024 22.7586H44.3991C42.9261 22.7658 41.458 22.9288 40.0192 23.2447H39.9817L39.0282 23.0803L39.9277 22.876C43.0853 22.1772 46.3611 22.2122 49.5031 22.9784C52.645 23.7446 55.5693 25.2215 58.0506 27.2955L58.3465 27.5492L58.532 27.7041H58.5179C59.5224 28.5962 60.44 29.5814 61.2586 30.6466L60.9674 30.8838Z" fill="white"/>
<path d="M65.3918 46.601L65.0208 46.5423L65.0325 46.4601L65.4035 46.5164L65.3918 46.601Z" fill="white"/>
<path d="M65.2368 43.0621V43.048C65.2368 42.8132 65.2368 42.5784 65.2157 42.3435L65.5891 42.3224C65.6032 42.5572 65.6079 42.7921 65.6126 43.0269V43.0551L65.2368 43.0621Z" fill="white"/>
<path d="M62.6887 54.2354L62.3717 54.0311L62.5314 54.132L62.3741 54.0287V54.0123L62.7991 53.3829L63.3933 52.9978L63.0809 53.6694C63.0675 53.7047 63.0427 53.7344 63.0105 53.754L62.6887 54.2354Z" fill="white"/>
<path d="M63.863 36.0289L64.0367 35.9608L63.863 36.0289L64.0367 35.9608L63.8606 36.0218C63.7651 35.7729 63.6641 35.5263 63.5577 35.2821L63.5436 35.2375L63.3087 33.7886L63.8888 35.1201C63.9968 35.369 64.0978 35.625 64.1964 35.8786L63.863 36.0289Z" fill="white"/>
<path d="M65.5867 44.666L65.2109 44.6449V44.5533C65.2109 44.4335 65.225 44.3184 65.2274 44.194H65.6031C65.6031 44.3184 65.5914 44.4288 65.5843 44.565L65.5867 44.666Z" fill="white"/>
<path d="M65.6149 43.9474H65.2391C65.2391 43.7854 65.2391 43.6233 65.2391 43.4613H65.6149H65.2391H65.6149V43.513C65.6149 43.6304 65.6149 43.7478 65.6149 43.8629V43.9474Z" fill="white"/>
<path d="M65.5373 45.354L65.1639 45.3235L65.1757 45.1803C65.1757 45.1028 65.1898 45.0276 65.1945 44.9454L65.5702 44.9713C65.5702 45.0511 65.5561 45.131 65.5491 45.2061L65.5373 45.354Z" fill="white"/>
<path d="M65.4669 46.0233L65.0935 45.9787L65.1287 45.704L65.5021 45.7439L65.4669 46.0233Z" fill="white"/>
<path d="M63.7197 35.7001C63.6782 37.3238 63.7331 38.9486 63.8841 40.5658C64.0509 42.2378 63.6117 42.738 62.2754 43.675C61.4817 44.2339 60.0515 45.873 59.0205 45.7227C58.0271 45.5771 57.1535 44.2902 56.3621 43.1396V43.1889C57.1488 44.3419 58.0177 45.6335 59.0111 45.7838C60.0397 45.9388 61.477 44.3067 62.2731 43.7525C63.6141 42.8132 64.0556 42.3247 63.8982 40.6504C63.7551 39.0335 63.708 37.4095 63.7573 35.787C63.758 35.5931 63.7462 35.3994 63.7221 35.207L63.6798 35.1036C63.7054 35.3014 63.7188 35.5007 63.7197 35.7001Z" fill="#65D0D9"/>
<path d="M44.5 65C41.0185 64.9967 37.5898 64.1485 34.5083 62.5282C31.4268 60.9079 28.7847 58.5639 26.8088 55.6976C24.8329 52.8312 23.5822 49.5281 23.1643 46.072C22.7463 42.6158 23.1735 39.1098 24.4091 35.8551L25.4636 36.2567C23.6507 41.0229 23.6911 46.2957 25.577 51.0336C27.4628 55.7715 31.0568 59.63 35.6493 61.8471C40.2417 64.0641 45.4987 64.4785 50.3818 63.0084C55.2649 61.5382 59.4192 58.2905 62.0241 53.9066L62.4069 53.3242C62.4205 53.3037 62.4354 53.2841 62.4515 53.2655C62.8343 52.4718 63.0246 52.0608 63.2054 51.6029C63.6004 50.6843 63.927 49.7377 64.1823 48.7708L65.272 49.0526C65.0013 50.0664 64.6576 51.0592 64.2434 52.0233C64.0508 52.514 63.8465 52.9485 63.4285 53.815C63.3984 53.8857 63.3545 53.9495 63.2993 54.0029L62.9752 54.496C61.062 57.6905 58.3556 60.3362 55.1185 62.1766C51.8815 64.017 48.2237 64.9896 44.5 65Z" fill="white"/>
<path d="M57.5668 27.8709C54.2739 25.1179 50.1949 23.4765 45.9128 23.1812C41.6308 22.886 37.3651 23.9521 33.7254 26.227L33.1266 25.2689C36.9701 22.8709 41.4732 21.7491 45.9925 22.0637C50.5118 22.3784 54.8161 24.1133 58.2902 27.0208L57.5668 27.8709Z" fill="white"/>
<path d="M65.7745 46.5845L64.659 46.4248C64.799 45.4557 64.8704 44.478 64.8727 43.4988C64.8786 40.7183 64.3101 37.9666 63.203 35.4159L64.2363 34.9674C65.4048 37.6596 66.0052 40.564 66 43.4988C65.9985 44.5315 65.9232 45.5627 65.7745 46.5845Z" fill="white"/>
<path d="M32.3939 61.0196C32.2893 61.0193 32.1869 60.9901 32.098 60.9351C31.5024 60.5676 30.9384 60.1513 30.4118 59.6905C28.6622 58.1383 27.6735 56.2573 27.2038 53.5849C27.0441 52.6737 26.6355 51.8048 26.201 50.882C25.6022 49.6045 24.9798 48.2847 25.055 46.81C25.0761 46.3849 25.1278 45.981 25.1794 45.5912C25.2918 44.9352 25.3194 44.2675 25.2616 43.6045C25.1544 42.8887 24.9927 42.1822 24.7778 41.491C24.6182 40.9321 24.4561 40.3568 24.3457 39.765C24.1187 38.4982 24.1298 37.2001 24.3786 35.9373C24.387 35.9093 24.3972 35.8818 24.4091 35.8551C26.091 31.472 29.1501 27.753 33.1266 25.2571C33.2033 25.2096 33.2902 25.1812 33.3802 25.1741C33.4701 25.167 33.5605 25.1816 33.6436 25.2165C33.7268 25.2514 33.8005 25.3057 33.8584 25.3749C33.9163 25.4441 33.9569 25.5261 33.9767 25.6141C33.9767 25.6751 34.0002 25.7362 34.0143 25.802C34.0292 25.9168 34.0576 26.0295 34.0988 26.1378C34.2336 26.368 34.381 26.5907 34.5403 26.8047C34.8616 27.2045 35.1227 27.6491 35.3153 28.1244C35.6277 29.2 35.158 29.5851 34.6484 29.888C34.4547 29.9845 34.2866 30.1253 34.1575 30.299C33.9086 30.67 33.9086 30.67 34.1575 31.0246C34.339 31.2586 34.4964 31.5104 34.6272 31.7761C35.2143 32.9854 34.6037 35.2774 33.1501 36.05C32.9341 36.1688 32.692 36.2317 32.4455 36.2332C32.1343 36.2223 31.8294 36.142 31.5531 35.9983C31.3826 35.9073 31.1959 35.8506 31.0036 35.8316C30.2756 35.8316 30.0078 36.2449 29.517 37.102C29.4606 37.203 29.4019 37.304 29.3432 37.405C28.7749 38.3701 28.5823 38.6449 27.6711 38.9619C27.5725 39.3776 27.6711 40.695 27.8825 41.9372C28.1173 43.2429 28.6551 43.9051 29.7166 44.8139L29.935 44.9994C31.6142 46.4296 33.9133 48.3904 34.444 50.7246C34.7799 52.2064 34.0378 53.3712 33.3849 54.3997C33.1493 54.7563 32.9322 55.1247 32.7344 55.5034C32.0721 56.8561 32.3586 58.0138 32.7203 59.4791C32.7907 59.7586 32.8612 60.0451 32.927 60.341C32.9438 60.4215 32.9428 60.5047 32.9241 60.5847C32.9053 60.6648 32.8693 60.7398 32.8185 60.8045C32.7677 60.8691 32.7034 60.9219 32.63 60.9591C32.5567 60.9963 32.476 61.0169 32.3939 61.0196ZM25.4777 36.2003C25.264 37.3103 25.2552 38.45 25.4519 39.5631C25.5552 40.1055 25.7031 40.6339 25.8628 41.1905C26.0934 41.9345 26.2661 42.6953 26.3795 43.466C26.4495 44.2252 26.4187 44.9904 26.2879 45.7415C26.2409 46.1102 26.1916 46.4906 26.1705 46.871C26.1118 48.064 26.6402 49.2029 27.2132 50.4076C27.657 51.3469 28.1197 52.3356 28.3052 53.3947C28.7256 55.7946 29.6039 57.476 31.1492 58.8451C31.2572 58.9437 31.3699 59.0377 31.4874 59.1316C31.1774 57.7977 30.9989 56.4968 31.7339 55.0009C31.9459 54.5834 32.1811 54.178 32.4385 53.7868C33.0514 52.824 33.5822 51.9904 33.3497 50.9688C32.9035 49.001 30.7664 47.181 29.2094 45.8542L28.991 45.6663C27.7721 44.6237 27.0582 43.7525 26.7764 42.1274C26.0977 38.2809 26.8539 38.039 27.1756 37.9357C27.8543 37.715 27.8543 37.715 28.3757 36.8296C28.4344 36.731 28.4884 36.6347 28.5448 36.5384C29.0379 35.6766 29.5945 34.6997 30.9918 34.6997C31.3485 34.7116 31.6982 34.8022 32.0158 34.9651C32.1505 35.0391 32.2978 35.0877 32.4502 35.1083C32.511 35.1068 32.5702 35.089 32.6217 35.0567C33.4882 34.587 33.9603 32.9808 33.6174 32.2716C33.5144 32.0683 33.3917 31.8756 33.251 31.6962C32.8377 31.135 32.5723 30.6277 33.2111 29.6743C33.4314 29.3598 33.7226 29.1016 34.0612 28.9205C34.1394 28.8805 34.2126 28.8316 34.2797 28.7749C34.2797 28.6622 34.2607 28.5502 34.2233 28.4438C34.0553 28.0938 33.8498 27.7631 33.6103 27.4575C33.4244 27.2015 33.2535 26.9349 33.0984 26.6591L33.0843 26.6309C29.6352 28.9737 26.9818 32.3117 25.4777 36.2003Z" fill="white"/>
<path d="M46.1087 59.7281C45.4042 59.7281 44.7748 59.3407 44.2065 58.5751C43.2201 57.2483 43.2882 55.4565 43.354 53.7211C43.3915 52.7302 43.4268 51.7955 43.2577 51.037C42.8444 49.1725 41.905 48.9235 39.6927 48.7662C37.0507 48.576 36.3345 47.0073 36.1419 46.0915C35.6511 43.7432 37.3161 40.7303 39.1667 39.4716C38.9938 39.4152 38.8383 39.3154 38.7149 39.1818C38.5916 39.0482 38.5046 38.8852 38.4622 38.7084C38.2884 37.8935 39.1996 37.1162 40.1648 36.2943C40.2118 36.2544 40.2611 36.2145 40.3104 36.1698C39.7491 36.0618 39.2348 35.8364 39.0117 35.3573C38.7886 34.8783 38.9248 34.3241 39.4109 33.6924C39.5704 33.4655 39.7811 33.2795 40.0259 33.1493C40.2707 33.0192 40.5428 32.9486 40.82 32.9432C41.1527 32.9573 41.4764 33.0553 41.7609 33.2282C42.0455 33.4011 42.2817 33.6431 42.4475 33.9319C42.4803 33.8896 42.5156 33.845 42.5532 33.7933C42.7891 33.4347 42.9601 33.0372 43.0581 32.6192C43.2929 31.8724 43.5278 31.027 44.4671 30.4634C45.0208 30.1385 45.6548 29.9757 46.2966 29.9938C46.822 30.0076 47.3456 30.061 47.863 30.1534C48.3643 30.2506 48.8741 30.2978 49.3848 30.2943C50.5919 30.2309 51.7332 29.463 52.9286 28.6505C54.2672 27.7464 55.6528 26.8094 57.2638 26.8094C57.5303 26.8094 57.7961 26.8354 58.0576 26.8869C58.151 26.9057 58.2382 26.9477 58.3112 27.0091C60.8761 29.1677 62.9051 31.8919 64.2387 34.9675C64.2602 35.0175 64.2737 35.0706 64.2786 35.1248C64.3076 35.3475 64.3217 35.5719 64.3209 35.7965C64.2702 37.3993 64.3165 39.0038 64.4594 40.6011C64.645 42.5666 64.0015 43.2406 62.5948 44.2175C62.4092 44.3467 62.158 44.5651 61.8902 44.7952C61.0495 45.5279 60.0937 46.3592 59.1496 46.3592C59.071 46.3603 58.9924 46.3548 58.9148 46.3427C57.6936 46.1596 56.7518 44.7788 55.9205 43.56C55.6128 43.1115 55.3193 42.6794 55.0492 42.3623C55.0961 42.5758 55.1268 42.7924 55.1408 43.0105C55.1831 43.8747 55.0445 44.4195 54.6946 44.7975C54.2367 45.2672 53.5744 45.2813 52.8746 45.2836H52.729C52.8375 45.4421 52.9326 45.6094 53.0131 45.7838C53.8092 47.9631 52.729 49.9286 51.7755 51.6546L51.5829 52.0045C51.4655 52.2229 51.2729 52.6761 51.0498 53.2022C49.6619 56.5203 48.1284 59.7281 46.1087 59.7281ZM41.6725 39.8919C41.307 39.8908 40.9429 39.9382 40.5899 40.0328C40.4273 40.0752 40.2698 40.135 40.1202 40.2113C38.5115 41.059 36.8323 43.8887 37.2504 45.8472C37.4852 46.9251 38.326 47.5239 39.7773 47.6296C41.7195 47.7682 43.7274 47.9114 44.3638 50.7811C44.5634 51.6805 44.5235 52.7349 44.4836 53.7517C44.4272 55.2922 44.3685 56.8843 45.1153 57.8917C45.4605 58.3614 45.7964 58.5962 46.1134 58.5962C47.5553 58.5962 49.2885 54.5102 50.0282 52.7654C50.2631 52.1877 50.4651 51.7345 50.6107 51.4668L50.8032 51.1145C51.6792 49.5247 52.5834 47.8809 51.9775 46.1995C51.9258 46.1009 51.7168 45.7697 51.5782 45.549C51.0428 44.7013 50.9864 44.6097 51.1485 44.3067C51.2024 44.2029 51.284 44.1161 51.3844 44.056C51.4847 43.9959 51.5998 43.9648 51.7168 43.9662C51.8825 43.9742 52.0437 44.0226 52.1865 44.1071L52.3039 44.1612C52.5012 44.1612 52.6984 44.1612 52.8863 44.1612C53.3372 44.1612 53.7646 44.1612 53.8891 44.0273C53.9431 43.9709 54.0629 43.7643 54.0276 43.0715C53.9949 42.7374 53.9304 42.4072 53.8351 42.0852C53.6918 41.531 53.6002 41.1318 53.8351 40.8148C53.8955 40.734 53.9738 40.6681 54.0638 40.6225C54.1538 40.5769 54.2532 40.5527 54.3541 40.5518C54.6453 40.5518 54.9459 40.7209 55.5001 41.1952C55.9698 41.5897 56.3972 42.2355 56.8646 42.9189C57.5292 43.8958 58.3582 45.1122 59.0932 45.2202C59.1127 45.2225 59.1324 45.2225 59.1519 45.2202C59.6757 45.2202 60.561 44.4453 61.1528 43.9334C61.4078 43.7024 61.6743 43.4846 61.9513 43.2805C63.2101 42.407 63.4684 42.0876 63.3369 40.6974C63.1902 39.0579 63.1416 37.4112 63.1913 35.7659C63.1928 35.62 63.1857 35.4742 63.1701 35.3291C61.921 32.4884 60.0437 29.968 57.6795 27.9578C57.5349 27.9362 57.3889 27.9252 57.2427 27.9249C55.9769 27.9249 54.7932 28.7257 53.5392 29.5687C52.2851 30.4118 50.9465 31.3417 49.4223 31.4192C48.8348 31.429 48.2477 31.3786 47.6704 31.2689C47.2099 31.1839 46.7435 31.1344 46.2754 31.121C45.8403 31.103 45.409 31.208 45.0308 31.4239C44.4695 31.7644 44.3262 32.2834 44.1196 32.9409C43.9859 33.4898 43.7526 34.0096 43.4315 34.4743C43.1809 34.8513 42.837 35.1571 42.4334 35.362C42.3638 35.3945 42.2884 35.4125 42.2117 35.4149C42.135 35.4173 42.0586 35.4041 41.9872 35.3761C42.0086 35.4024 42.0275 35.4307 42.0435 35.4606C42.0887 35.5477 42.1105 35.6449 42.1068 35.7429C42.1031 35.8409 42.074 35.9362 42.0224 36.0195C41.6929 36.4465 41.3084 36.8279 40.8787 37.1538C40.5053 37.4731 39.7632 38.0931 39.5871 38.4289L39.6693 38.4571C39.8179 38.4929 39.9737 38.4847 40.1178 38.4336C40.4475 38.3127 40.7626 38.1551 41.0572 37.9639C41.4933 37.6606 41.9849 37.4459 42.5038 37.3322C43.2389 37.2289 43.8659 37.4661 44.4554 37.6915C44.8184 37.854 45.2041 37.9601 45.5991 38.0062H45.6507C45.9967 37.9762 46.3376 37.9028 46.6653 37.7878C47.1194 37.6293 47.5939 37.5368 48.0743 37.5131C48.347 37.509 48.617 37.5677 48.8634 37.6845C49.1154 37.8356 49.3349 38.0352 49.5091 38.2719C49.6833 38.5085 49.8086 38.7774 49.8779 39.063C49.9734 39.3291 50.0145 39.6118 49.9988 39.8942C49.9831 40.1765 49.9108 40.4528 49.7864 40.7068C49.2298 41.6625 47.7526 41.8034 46.9213 41.8034C45.6554 41.8034 44.338 41.4982 43.7391 41.059C43.5004 40.882 43.2808 40.6805 43.0839 40.4579C42.9844 40.3157 42.856 40.1961 42.707 40.1071C42.5581 40.0181 42.392 39.9615 42.2197 39.9412C42.0389 39.9102 41.8559 39.8937 41.6725 39.8919ZM41.9073 38.7694C42.0749 38.7777 42.2419 38.7949 42.4075 38.8211C43.0038 38.9046 43.5452 39.214 43.9199 39.6853C44.0655 39.8531 44.2284 40.0051 44.4061 40.1385C44.7677 40.3991 45.8151 40.6692 46.9283 40.6692C47.8865 40.6692 48.6286 40.4579 48.8211 40.1314C48.9039 39.886 48.8981 39.6193 48.8047 39.3776C48.7476 39.0989 48.5937 38.8493 48.3702 38.6731C48.1119 38.5463 47.5342 38.6896 47.0011 38.8469C46.5344 39.0187 46.0423 39.1116 45.5451 39.1217C45.0347 39.0702 44.5356 38.9395 44.0655 38.7342C43.5771 38.5463 43.1262 38.3726 42.6729 38.436C42.4012 38.5024 42.143 38.6152 41.9097 38.7694H41.9073ZM40.7989 34.0728C40.6966 34.0813 40.5978 34.1139 40.5105 34.1677C40.4232 34.2216 40.3498 34.2952 40.2963 34.3828C40.0168 34.7444 40.0286 34.8924 40.0286 34.8924C40.0943 34.9816 40.4208 35.1272 41.5645 35.1624C41.6289 35.1667 41.6923 35.181 41.7523 35.2047C41.6979 35.136 41.6601 35.0556 41.642 34.9698C41.5527 34.479 41.1605 34.0704 40.8012 34.0704L40.7989 34.0728Z" fill="white"/>
<path d="M63.628 50.1799C63.0292 50.1799 62.5031 49.79 62.1861 49.109C61.7493 48.1697 61.7375 46.7302 62.5548 45.7509C62.7235 45.5235 62.9415 45.3371 63.1924 45.2057C63.4433 45.0744 63.7207 45.0015 64.0038 44.9924C64.7083 44.9924 65.4011 45.4973 65.7369 46.2793C65.7772 46.3749 65.791 46.4795 65.7769 46.5822C65.6573 47.4149 65.4887 48.2399 65.272 49.0527C65.2523 49.1268 65.218 49.1963 65.171 49.257C64.6895 49.8699 64.1682 50.1799 63.628 50.1799ZM64.0038 46.1196C63.8871 46.1352 63.7749 46.1747 63.6743 46.2357C63.5737 46.2967 63.4867 46.378 63.419 46.4742C62.9282 47.0613 62.9259 48.0335 63.2053 48.6323C63.3016 48.8343 63.4613 49.0527 63.628 49.0527C63.6868 49.0527 63.8958 49.0221 64.2152 48.6441C64.3904 47.9676 64.5307 47.2825 64.6355 46.5916C64.5784 46.4659 64.4903 46.3568 64.3793 46.2747C64.2684 46.1925 64.1383 46.1399 64.0014 46.122L64.0038 46.1196Z" fill="white"/>
<path d="M30.2379 42.9729C29.625 42.9729 29.1107 42.5032 28.8617 41.7119C28.5776 40.8195 28.6598 39.6547 29.362 39.1616C29.5668 39.0122 29.813 38.9302 30.0665 38.9268C30.6912 38.9268 31.2853 39.4223 31.6141 40.216C31.9687 41.0684 31.8724 41.9138 31.3628 42.4211C31.2217 42.5835 31.0494 42.716 30.8562 42.8108C30.663 42.9056 30.4528 42.9607 30.2379 42.9729ZM30.0665 40.061C30.046 40.0637 30.0265 40.0718 30.0101 40.0845C29.8739 40.1808 29.7401 40.7561 29.935 41.3714C30.043 41.7095 30.1933 41.841 30.2379 41.841C30.2802 41.841 30.3953 41.794 30.5667 41.6226C30.7381 41.4512 30.7381 41.0449 30.5667 40.6481C30.3953 40.2512 30.1604 40.061 30.0665 40.061Z" fill="white"/>
<path d="M51.7966 58.4271C51.3269 58.4271 50.7891 58.0913 50.7375 57.152C50.6647 55.8088 51.604 53.0072 53.0272 52.8522C53.5533 52.7935 53.9314 53.1011 54.0629 53.6342C54.3564 54.8084 53.3325 57.786 52.4753 58.2369C52.2683 58.3555 52.0351 58.4208 51.7966 58.4271ZM52.992 54.0593C52.7376 54.3116 52.5343 54.6106 52.3931 54.9399C51.9234 55.9379 51.8037 56.9312 51.8835 57.2717L51.9516 57.2389C52.419 56.8702 53.0249 54.7849 52.992 54.0593Z" fill="white"/>
<path d="M37.3514 32.1636C37.0014 32.1636 36.3603 32.0227 35.994 31.0857C35.5877 30.0572 36.2288 28.8971 36.8089 27.8756C36.9545 27.6149 37.0907 27.3683 37.1987 27.1476C37.8163 25.8748 40.1155 25.1727 41.4682 25.1727C41.6253 25.1718 41.7822 25.182 41.9379 25.2032C42.2534 25.2276 42.5565 25.3367 42.8153 25.5189C43.074 25.7012 43.2788 25.9499 43.408 26.2388C43.7109 26.9621 43.5137 27.9554 42.9054 28.7703C42.3747 29.4889 41.595 29.8622 40.8482 30.2192C40.3955 30.4139 39.9662 30.6589 39.5683 30.9495L39.3828 31.1022C38.8403 31.5554 38.1099 32.1636 37.3514 32.1636ZM41.4682 26.2928C40.2024 26.2928 38.5279 26.9809 38.2132 27.6313C38.0911 27.8826 37.9455 28.1433 37.7929 28.418C37.3654 29.1812 36.8323 30.1323 37.0437 30.6677C37.1846 31.027 37.3091 31.027 37.3514 31.027C37.7013 31.027 38.3189 30.5127 38.6524 30.238L38.8497 30.0736C39.3149 29.7267 39.8184 29.4344 40.3503 29.2024C41.0126 28.8853 41.6373 28.5848 42.006 28.0893C42.3747 27.5938 42.5179 27.0137 42.3747 26.6685C42.3441 26.5957 42.2526 26.375 41.7899 26.3116C41.683 26.3012 41.5756 26.2973 41.4682 26.2999V26.2928Z" fill="white"/>
</g>
<defs>
<clipPath id="clip0">
<rect width="43" height="43" fill="white" transform="translate(23 22)"/>
</clipPath>
</defs>
</svg>
