<svg width="32" height="45" viewBox="0 0 32 45" fill="none" xmlns="http://www.w3.org/2000/svg">
<path d="M16 45C11.7259 45 7.70822 43.3434 4.68653 40.3351C1.66424 37.3273 0 33.3275 0 29.0737V15.9263C0 11.6725 1.66424 7.67271 4.68653 4.66494C7.70822 1.65657 11.7259 0 16 0C20.2741 0 24.2918 1.65657 27.3135 4.66494C30.3358 7.67271 32 11.6725 32 15.9263V29.0737C32 33.3275 30.3358 37.3273 27.3135 40.3351C24.2918 43.3434 20.2741 45 16 45ZM16 2.39044C12.3677 2.39044 8.9528 3.79841 6.38439 6.35498C3.81598 8.91155 2.4015 12.3108 2.4015 15.9263V29.0737C2.4015 32.6892 3.81598 36.0884 6.38439 38.645C8.9528 41.2016 12.3677 42.6096 16 42.6096C19.6323 42.6096 23.0472 41.2016 25.6156 38.645C28.184 36.0884 29.5985 32.6892 29.5985 29.0737V15.9263C29.5985 12.3108 28.184 8.91155 25.6156 6.35498C23.0472 3.79841 19.6323 2.39044 16 2.39044Z" fill="#00EB84"/>
<path d="M16 20.2888C18.7355 20.2888 20.9531 18.0814 20.9531 15.3585C20.9531 12.6356 18.7355 10.4282 16 10.4282C13.2645 10.4282 11.0469 12.6356 11.0469 15.3585C11.0469 18.0814 13.2645 20.2888 16 20.2888Z" fill="#00EB84"/>
</svg>
