<svg width="88" height="88" viewBox="0 0 88 88" fill="none" xmlns="http://www.w3.org/2000/svg">
<circle cx="43.7984" cy="43.7984" r="43.2984" stroke="#6001B5"/>
<g clip-path="url(#clip0)">
<path d="M62.7019 64.0001H26.298C25.7267 63.9994 25.1789 63.7725 24.7748 63.3689C24.3706 62.9653 24.1429 62.418 24.1416 61.847V45.6363C24.136 45.5419 24.1498 45.4473 24.182 45.3583C24.2143 45.2694 24.2645 45.188 24.3294 45.1191C24.3943 45.0503 24.4726 44.9954 24.5595 44.9579C24.6464 44.9204 24.7401 44.9011 24.8347 44.9011C24.9294 44.9011 25.023 44.9204 25.1099 44.9579C25.1968 44.9954 25.2751 45.0503 25.34 45.1191C25.405 45.188 25.4551 45.2694 25.4874 45.3583C25.5197 45.4473 25.5335 45.5419 25.5278 45.6363V61.847C25.531 62.0499 25.6132 62.2437 25.757 62.387C25.9009 62.5303 26.0949 62.6119 26.298 62.6144H62.7019C62.9049 62.6119 63.099 62.5303 63.2428 62.387C63.3866 62.2437 63.4688 62.0499 63.472 61.847V45.3919C63.4825 45.2153 63.5601 45.0493 63.6889 44.928C63.8177 44.8066 63.9881 44.739 64.1651 44.739C64.3421 44.739 64.5125 44.8066 64.6413 44.928C64.7701 45.0493 64.8477 45.2153 64.8582 45.3919V61.847C64.8576 62.4182 64.6301 62.9659 64.2258 63.3696C63.8214 63.7733 63.2733 64.0001 62.7019 64.0001Z" fill="white"/>
<path d="M51.0938 31.9648C50.9103 31.9648 50.7343 31.8919 50.6046 31.7622C50.4748 31.6325 50.4019 31.4566 50.4019 31.2732V27.0843C50.3987 26.6327 50.217 26.2007 49.8964 25.8825C49.5758 25.5643 49.1423 25.3857 48.6905 25.3857H40.29C39.8361 25.3857 39.4008 25.566 39.0799 25.8868C38.7589 26.2076 38.5786 26.6428 38.5786 27.0965V31.2732C38.5681 31.4498 38.4905 31.6158 38.3617 31.7371C38.2329 31.8585 38.0625 31.9261 37.8855 31.9261C37.7085 31.9261 37.5381 31.8585 37.4093 31.7371C37.2805 31.6158 37.2029 31.4498 37.1924 31.2732V27.0843C37.193 26.6784 37.2737 26.2766 37.4297 25.9019C37.5858 25.5272 37.8142 25.1869 38.1018 24.9005C38.3895 24.614 38.7308 24.3871 39.1063 24.2326C39.4817 24.0781 39.884 23.999 40.29 24H48.7101C49.5284 24.0007 50.3131 24.3257 50.892 24.9039C51.4708 25.4821 51.7967 26.2662 51.7979 27.0843V31.2732C51.7976 31.365 51.7791 31.4557 51.7435 31.5403C51.7078 31.6249 51.6557 31.7016 51.5903 31.7659C51.5248 31.8302 51.4472 31.8809 51.362 31.915C51.2768 31.9492 51.1856 31.9661 51.0938 31.9648Z" fill="white"/>
<path d="M40.4709 49.3485H40.4342C33.6326 49.0088 27.562 47.5669 22.3912 45.0594C22.2739 45.0022 22.1751 44.9132 22.1059 44.8026C22.0368 44.692 22.0001 44.5642 22 44.4337L22.0244 32.8128C22.0251 32.242 22.2522 31.6947 22.656 31.291C23.0598 30.8874 23.6073 30.6603 24.1784 30.6597H64.8216C65.1052 30.6587 65.3862 30.7137 65.6485 30.8214C65.9108 30.9292 66.1493 31.0876 66.3503 31.2876C66.5513 31.4876 66.7108 31.7252 66.8198 31.987C66.9288 32.2487 66.985 32.5293 66.9853 32.8128L67.0098 44.1307C67.0098 44.2568 66.9755 44.3806 66.9104 44.4887C66.8454 44.5967 66.7521 44.6851 66.6406 44.7441C61.5309 47.4325 55.3698 48.9868 48.3287 49.3436C48.2378 49.3483 48.1469 49.335 48.0612 49.3045C47.9755 49.2741 47.8966 49.227 47.829 49.1661C47.6926 49.043 47.6107 48.8709 47.6013 48.6874C47.5919 48.504 47.6558 48.3243 47.7789 48.188C47.902 48.0516 48.0742 47.9697 48.2578 47.9604C54.9249 47.6206 60.7656 46.1934 65.6162 43.7128L65.5918 32.8152C65.5918 32.6115 65.511 32.416 65.3671 32.2717C65.2232 32.1274 65.0279 32.046 64.8241 32.0454H24.1784C23.975 32.046 23.7801 32.1271 23.6362 32.2709C23.4924 32.4146 23.4113 32.6095 23.4107 32.8128L23.3862 43.9987C28.3053 46.3107 34.0605 47.6426 40.5002 47.9628C40.6773 47.9768 40.8424 48.058 40.9613 48.1899C41.0803 48.3218 41.1442 48.4943 41.1398 48.6719C41.1354 48.8494 41.0631 49.0185 40.9378 49.1444C40.8124 49.2703 40.6436 49.3433 40.466 49.3485H40.4709Z" fill="white"/>
<path d="M47.1257 52.4768H41.8742C41.4756 52.4762 41.0935 52.3176 40.8117 52.0359C40.5299 51.7542 40.3713 51.3722 40.3706 50.9738V47.3739C40.3713 46.9754 40.5299 46.5935 40.8117 46.3118C41.0935 46.0301 41.4756 45.8715 41.8742 45.8708H47.1257C47.5243 45.8715 47.9064 46.0301 48.1882 46.3118C48.4701 46.5935 48.6287 46.9754 48.6293 47.3739V50.9738C48.6287 51.3722 48.4701 51.7542 48.1882 52.0359C47.9064 52.3176 47.5243 52.4762 47.1257 52.4768ZM41.8742 47.2566C41.8433 47.2572 41.8138 47.2698 41.7919 47.2916C41.77 47.3135 41.7575 47.343 41.7568 47.3739V50.9738C41.7575 51.0047 41.77 51.0342 41.7919 51.0561C41.8138 51.0779 41.8433 51.0905 41.8742 51.0911H47.1257C47.1567 51.0905 47.1862 51.0779 47.208 51.0561C47.2299 51.0342 47.2425 51.0047 47.2431 50.9738V47.3739C47.2425 47.343 47.2299 47.3135 47.208 47.2916C47.1862 47.2698 47.1567 47.2572 47.1257 47.2566H41.8742Z" fill="white"/>
</g>
<defs>
<clipPath id="clip0">
<rect width="45" height="40" fill="white" transform="translate(22 24)"/>
</clipPath>
</defs>
</svg>
