<svg xmlns="http://www.w3.org/2000/svg" width="153" height="40" viewBox="0 0 153 40">
    <g fill="none" fill-rule="evenodd">
        <path fill="#FFF" d="M62.721 21.802l-.009-12.84h.99c1.403.068 3.616.512 3.697 2.996l.004 12.835c-.812.018-4.566.247-4.682-2.99zm24.122-4.01c.268.35.458.736.573 1.168.085.315.135.662.148 1.042-.007 1.886-.945 3.3-3.156 4.143-1.128.447-2.785.642-3.886.675l-9.558.001c.03-.55.113-3.071 2.684-3.164h6.25c1.506 0 2.99-.266 2.99-1.572 0-1.374-1.661-1.574-2.99-1.574h-2.79c-5.247-.092-6.677-2.772-6.677-4.682 0-1.648.969-3.255 3.164-4.098 1.13-.447 2.722-.661 4.075-.723 1.313-.058 8.91-.002 9.354 0-.032.584-.137 3.086-2.73 3.15H78.1c-1.329 0-2.99.2-2.99 1.573 0 1.287 1.438 1.565 2.919 1.573.25.015.498.018.734.018h2.265c.831.015 1.452.1 2.289.297 1.645.366 2.82 1.263 3.526 2.173zm17.125 3.835c2.632.088 2.667 2.711 2.697 3.194h-8.28c-.752 0-1.617-.13-2.6-.399-1.914-.533-3.364-1.431-4.352-2.7a6.52 6.52 0 0 1-1.126-2.321 8.623 8.623 0 0 1-.279-2.298c-.008-3.345 1.393-5.702 4.198-7.067 1.431-.717 2.853-1.074 4.264-1.074h8.183v.103c-.035.66-.204 2.952-2.602 3.089h-5.118c-3.536.155-3.988 3.12-3.988 3.12h10.685v.088c-.037.66-.204 2.956-2.608 3.09h-8.045s.048 3.175 3.995 3.175h4.976zm24.056-12.665c1.381.067 3.546.498 3.691 2.88l-.003 12.979h-8.707c-.737 0-1.59-.13-2.558-.397-1.887-.514-3.322-1.414-4.312-2.696-.547-.695-.944-1.51-1.19-2.443a9.108 9.108 0 0 1-.284-2.346l.011-7.964 1.103-.003c1.402.096 3.444.596 3.53 2.97l.002 4.412c-.003.684.065 1.3.213 1.852.175.667.454 1.241.832 1.725.531.684 1.705 1.626 3.29 1.677h3.37l.017-12.646h.995zm16.07 7.959c.817 0 3.35-.137 3.35-2.25 0-.249-.023-.475-.087-.685a2.007 2.007 0 0 0-.452-.77c-.609-.653-1.52-.978-3.039-.978h-3.679l-.007 4.683h3.914zm7.853-3.897c.105.4.151.838.142 1.32.008 2.327-1.221 3.98-3.681 4.962-1.308.53-2.942.797-4.112.797h-4.112l-.005 4.714-1.018.001c-1.404-.071-3.59-.53-3.677-2.991l.014-12.819h8.942c.736 0 1.958.11 2.875.325 1.787.433 3.089 1.164 3.896 2.193.344.451.59.95.736 1.498zm-141.838 9.15c4.183 5.575 6.991 5.39 9.361 5.737-1.685.688-3.083 1-5.014 1C6.474 28.911 0 22.441 0 14.455 0 6.472 6.474 0 14.456 0 22.26 0 28.614 6.18 28.9 13.916c-2.315-.276-3.583-2.431-6.475-4.986-2.71-2.394-6.957-1.682-6.957-1.682s4.27 4.632 8.009 8.383c1.293 1.299 2.456 1.92 3.552 1.902a2.967 2.967 0 0 0 1.282-.326c-.456 1.034-1.14 2.055-2.223 2.305-1.48.338-3.34-.79-5.84-3.351 0 0-2.197-2.351-5.087-5.402-3.321-3.505-7.855-2.05-7.882-2.024 0 0 2.544 2.335 6.279 6.61l2.769 3.17c2.945 3.376 5.525 4.882 7.986 4.73a5.224 5.224 0 0 0 1.241-.236c-2.594 3.196-5.92 3.85-11.122-2.136-1.4-1.614-4.237-5.097-4.565-5.456-2.999-3.583-6.9-2.6-6.9-2.6.882 1.214 1.85 2.302 7.142 9.357zm49.313-10.229l.02 12.876h-14.76c-.736 0-1.588-.131-2.558-.398-1.886-.513-3.33-1.413-4.335-2.695a6.876 6.876 0 0 1-1.196-2.443 9 9 0 0 1-.286-2.345l.015-7.983.162-.003.58.001c1.377.038 3.788.398 3.889 2.977l.002 4.451c.007.686.087 1.31.239 1.88a4.85 4.85 0 0 0 .714 1.55c.704.999 2.311 1.592 3.581 1.775l.214.027-.002-12.653h.835c1.4.068 3.6.508 3.697 2.968l.013 7.633c.055 1.733 1.492 2.007 2.123 2.043h2.483l-.006-12.65c.034 0 .07 0 .11-.002l.572.001c1.381.037 3.802.397 3.894 2.99z"/>
        <path fill="#00EB84" d="M104.828 37.739h.221c.67-.05 1.718-.365 1.788-2.112V34.61c-.07-1.747-1.119-2.063-1.788-2.111h-.22c-.67.048-1.719.364-1.789 2.11v1.02c.07 1.746 1.12 2.062 1.788 2.11zm4.07-1.853c-.147 2.626-2.334 3.101-3.729 3.174h-.46c-1.396-.073-3.582-.548-3.73-3.174V34.35c.148-2.626 2.334-3.101 3.73-3.175h.46c1.395.074 3.582.549 3.729 3.175v1.535zm27.21 2.875c-.646-.031-1.658-.232-1.726-1.346l.001-6.067h4.07c.345 0 .744.062 1.196.187.882.239 1.553.66 2.016 1.259.256.325.441.705.556 1.142.089.333.133.699.133 1.096l-.006 3.723-.515.001c-.655-.044-1.609-.278-1.65-1.387v-2.063a3.262 3.262 0 0 0-.1-.866 2.192 2.192 0 0 0-.39-.806c-.247-.32-.797-.76-1.537-.784h-1.576l-.008 5.91h-.464zm-23.234 0c-.646-.031-1.657-.232-1.726-1.346l.001-6.067h4.07c.345 0 .744.062 1.197.187.882.239 1.552.66 2.015 1.259.256.325.441.705.557 1.142.088.333.132.699.132 1.096l-.006 3.723-.515.001c-.654-.044-1.609-.278-1.65-1.387v-2.063a3.263 3.263 0 0 0-.1-.866 2.192 2.192 0 0 0-.39-.806c-.247-.32-.796-.76-1.537-.784h-1.575l-.008 5.91h-.465zm14.472-.466v.466l-4.289-.005c-.429-.014-.98-.164-1.193-.374-.287-.215-.455-.539-.473-1.063l-.004-5.958h.465c.66.032 1.7.246 1.739 1.444v3.75l2.311.001c1.198.038 1.41 1.08 1.444 1.739zm2.251-.935l-.004-6h.463c.655.03 1.69.237 1.727 1.4l.002 5.998c-.392 0-2.142.125-2.188-1.398zm21.228-.092c1.23.04 1.247 1.267 1.261 1.493h-3.87c-.352 0-.755-.062-1.215-.187-.895-.25-1.573-.669-2.034-1.261a3.058 3.058 0 0 1-.527-1.086 4.04 4.04 0 0 1-.13-1.073c-.004-1.564.651-2.666 1.962-3.304.67-.335 1.334-.502 1.992-.502h3.826v.048c-.017.309-.095 1.38-1.216 1.444h-2.392c-1.653.073-1.864 1.46-1.864 1.46h4.994v.04c-.017.308-.096 1.382-1.219 1.444h-3.76s.022 1.484 1.867 1.484h2.325z"/>
    </g>
</svg>
